<svg xmlns="http://www.w3.org/2000/svg" viewBox="0 0 400 400"><path d="M0 0h400v400H0z" fill="#c8beb7"/><path d="M302.295 72.134c-1.347 3.833-6.76 6.993-9.686 9.246-11.706 9.246-12.173 7.2-6.76 15.099 7.2 10.8 11.473 23.879 8.339 36.932-.673 2.486-1.58 4.506-2.253 7.2-.673 2.486-1.114 5.18-1.813 7.433-3.16 9.919-5.853 20.046-7.666 30.405-.906 5.413-1.347 11.033-2.486 16.446-1.114 5.853-3.16 16.653-6.527 21.859-2.486 3.833-4.506 7.666-7.666 11.266l-9.686 9.246c-4.506 3.833-11.706 5.853-16.653 9.246-.906.44-.906.233-.673 1.114.44.673 1.813-.44 2.253-.673l6.527-3.16c3.6-1.58 12.38-5.853 11.473 2.02-.233 1.813-1.347 3.16-2.02 4.273-6.993 10.127-9.013 9.686-4.947 16.446 4.506 7.666 4.066 10.593 9.453 9.013 5.62-1.58 14.633.673 15.306 2.486 0 2.927-5.62 9.013-7.433 10.36-4.74 3.6-5.413 1.347-1.58 10.8 3.16 7.666 6.993 18.233 7.666 27.246.906 11.706-6.527 16.446-15.539 19.372-6.76 2.02-15.773 2.486-21.393-2.253-1.813-1.58-2.253-2.693-3.6-4.74-.44 2.486 0 2.693 0 4.947v11.033c0 7.2 3.16 15.539-7.433 18.699-5.62 1.58-14.193 1.347-20.279 1.114-7.873-.44-11.473-1.347-14.426-7.2-1.58.44-1.58 1.813-2.486 3.16-2.693 3.367-7.666 3.6-12.173 4.066-6.527.673-13.519.44-19.813-.906-6.993-1.347-9.453-4.74-8.78-12.613l.673-10.127c.233-3.16.673-7.2.44-10.36-.906.44-2.927 2.02-4.273 2.927-11.033 6.293-29.732 3.16-34.912-8.547-3.367-7.433.673-16.653 2.02-23.879.673-2.927-.906-3.367-2.253-4.947-3.833-4.506-4.506-13.286-3.16-17.352 3.6-.673 9.919 3.833 12.613 3.6.673-.906 2.694-6.76 3.6-8.547l4.066-7.873c1.114-2.02 8.78-14.426 8.78-14.866.233-1.58-1.347-2.927-2.927-2.693-1.114 0-3.367.906-4.74 1.347-2.693.673-6.993 2.02-9.919 1.347-2.693-.673-5.62-3.367-6.086-6.293-.233-3.367 4.066-4.273 5.413-6.527-1.813-1.114-4.066-1.813-4.74-4.066-1.114-3.367 2.253-10.593 6.293-10.36l1.114.233h.233.233c1.114 0 2.927.906 4.066 1.58 3.6 2.253 6.76 4.506 10.36 6.993 3.6 2.253 7.2 4.066 11.033 6.086.906-.673.673-.44 1.114-1.347-.673-.673-1.58-.906-2.693-1.347-1.114-.673-1.114-1.114-2.486-1.58-2.02-.673-3.16-2.02-4.74-2.927-7.873-4.273-4.066-2.486-9.246-6.293-1.813-1.347-2.927-2.02-4.506-3.367-2.486-2.253-4.74-6.086-6.527-9.013-1.114-1.58-1.813-3.367-2.693-5.18-2.927-5.18-4.947-11.266-6.293-17.352l-4.066-19.139c-2.486-10.36-5.853-29.965-6.993-39.859-1.114-9.686-1.58-19.606-1.114-29.499.673-12.613 1.813-15.306 7.2-24.086 2.02-3.367 4.066-6.293 6.086-9.453 1.347-2.02 4.74-7.873 6.76-8.547 1.347.44 1.813 1.58 2.694 2.927.906 1.347 1.347 2.02 2.486 3.16 3.6 4.74 4.066 4.947 4.506 0 .673-6.76 4.273-32.892 7.873-37.165 2.02-2.486 3.6-2.927 6.993-4.273.906-.44 2.927-1.347 3.833-1.58 2.02-.44 2.02-.44 4.066-1.347 3.6-1.58 5.62-1.58 8.547-2.693 3.6-1.347 5.413-1.58 9.013-2.253 5.853-1.114 14.633-2.02 20.719-1.347 4.273.44 4.066 2.927 4.273 6.993.233 4.273 4.066 27.479 4.947 28.593.906-.233 2.486-2.927 3.16-3.6 1.347-1.58 2.486-2.253 3.6-3.367 6.76-5.18 12.846-4.947 20.719-7.2 4.506-1.347 6.993-2.02 11.939-.44 7.2 2.02 13.726 4.506 20.046 7.666 3.833 2.02 5.853 2.486 7.433 6.527 1.347 3.367 1.58 7.433 2.693 11.033 1.114-1.347 1.813-2.927 2.927-4.273 2.02-2.486 6.086-5.413 9.686-4.947 2.253.44 2.253 2.253 3.833 3.6 3.16 0 8.339-6.086 13.053-5.853 5.102.233 8.029 6.993 5.983 12.173z"/><path d="M222.137 320.532c0-4.74 0-15.099 4.506-17.119l1.347 20.279c.233 1.813.44 4.273-3.367 1.813-1.606-1.14-2.486-2.486-2.486-4.973zm-18.466-8.106c9.919-15.306 4.74-12.613-3.833-13.519-3.833-.44-7.666-1.813-8.339-1.813l.233-.233h.44.233c-.233 0 .233 0 0 0h.233 1.114c2.927-.233 12.613 1.347 14.426.673 2.02-1.813-.233-2.927-2.486-3.16-3.367-.233-3.16.233-5.853-.906l.44-.233c.906-.44 2.02-.233 2.927-.233 1.114 0 2.486 0 3.367-.233 2.02-.233 3.6-1.813 2.694-3.833-2.253-2.02-16.653-2.253-20.486-2.02a43.69 43.69 0 0 0-9.686 1.813c-3.367 1.114-3.16 2.693-2.02 6.293l.44 1.114v2.253c-.233.673-.44 1.347-.44 2.253 0 3.833 8.339 2.253 10.593 4.947-2.694 0-5.62-.44-8.106-.906-1.347-.233-3.16-.233-3.16 1.347 0 .906 1.347 1.58 2.02 2.253 5.62 4.273 13.053 5.18 20.046 6.993 2.952.311 2.952.751 5.206-2.849zm31.752-24.319c1.58.673 5.62 3.367 6.993 3.16.44-.906.44-1.347 0-2.927l-.673-2.486c-1.58-5.62-5.413-2.693-11.266-8.106-1.114-.906-2.253-2.486-3.833-2.693 0 2.02.673 8.106 1.813 9.246.44.207 6.293 3.367 6.967 3.807zm-28.152-34.912c-2.253.233-2.693.44-4.273 1.347-3.367 2.253-5.18 5.413-6.993 9.453l-1.813 3.833c-.44 1.347.233 2.927 1.114 4.066l.673 2.486c0 1.58 0 2.693-.233 4.273-.673 5.18-1.347 4.947 4.947 5.62 4.066.44 7.873 1.813 11.266-.906.673-.673.44-.44.906-1.114.44-.233.906-.906 1.813-1.347 1.114 0 .44-.233.906.233l-2.02 4.066c3.16-.673 5.853-2.927 7.873-4.506 1.58-1.347 2.02-1.347 1.347-4.273-.906-4.273-4.74-22.299-5.62-24.086-3.134.181-6.76.622-9.893.855zm-13.752.233c-1.347 0-1.58.673-2.927.44.906 1.58 1.813 3.6 2.927 5.413l3.833-6.086c-1.114.233-2.486.233-3.833.233zm-29.266 41.646c.44.906 3.833 2.927 5.413 2.927 1.58 1.347 5.853-.233 5.18-2.927-.233-1.58-1.813-5.413-2.693-6.293-1.58 0-2.253.44-3.6-.44-1.114-.906-4.74-4.273-6.993-5.853-.44.673-1.347 6.293-1.58 7.666-.233 1.813.673 1.813 1.58 2.693 1.347 1.347 1.347 1.787 2.694 2.227zm71.611-41.205c-.673-1.347-.906-3.367-3.16-5.18l-10.593 3.16c.673 2.253 1.347 3.16 3.16 3.6 2.253.673 1.813 1.347 3.833 1.813h.44 0l.906.233h0c2.486.906 6.993 2.02 8.78 1.114.233-1.58-.673-1.813-1.347-2.693-.673-.906-.881-1.813-2.02-2.046zm-54.958 68.477c.906-.906 2.694-3.16 3.16-4.273 1.114-.44 1.58-1.58 1.347-2.927-.906-2.02-4.74-3.833-7.433-4.74-2.02-.673-8.78-1.347-10.36-.233-1.58-.233-3.6.233-5.18.233-.906 0-2.02.233-2.927.233-1.347.233-1.347.233-1.347 1.813l6.76.44c1.347 0 2.486.44 3.6.673 3.16.673 2.486.44 2.486 1.813h-9.453l-3.367.233c-.673 2.253-.44 3.367 1.347 4.066 1.347.44 3.16 1.114 4.74 1.347 2.694.906 8.339 2.927 11.473 3.367 2.694.414 4.04-.699 5.154-2.046zm-52.912-16.006c-.233-1.347-.673-9.246-1.813-9.453-1.114-.233-2.253 3.16-2.927 4.947-2.693 6.76-8.78 23.413-6.293 30.172 1.114 3.16 4.506 5.853 8.34 6.993.906-6.086-.673-10.127.233-12.173 1.114 1.58 1.813 7.2 1.58 9.453.44 4.506 2.486 5.18 3.16 3.833l.44-4.273c0-3.367.906-6.527.906-10.127s-1.114-6.086-1.813-9.246c-.906-3.6-1.373-6.734-1.813-10.127zm100.903-46.385l-4.947-1.813c-.233 1.347.233 5.413.673 6.76 2.02 4.947 8.339 3.833 12.613 9.246-2.253 0-6.293-2.02-8.547-2.927.906 4.506 6.993 6.76 10.593 8.106 2.253.906 12.613 4.74 14.426 4.273.906-1.347.233-1.58-1.347-4.74l-7.666-13.519c-1.114-1.813-1.347-2.927-4.066-3.16-4.999-.44-7.019-.881-11.732-2.227zm15.98-1.813c1.347-.906 8.339-10.36 8.547-12.613-1.813-.233-3.367 1.114-4.506 2.02-1.347 1.114-6.76 5.18-6.993 6.527-.207 1.14.699 3.186 2.952 4.066zm-127.915 38.512c-.673-.44-2.02-1.58-2.927-1.813-1.58-.233-2.253.673-2.02 2.253.44 3.367 3.16 8.339 5.18 8.339 2.694 0 3.6-6.06-.233-8.78zm60.345-44.132c-2.253-.233-5.413-.673-7.433-.673-2.693 4.273-6.993 21.626-6.527 24.319h2.486c-.673 1.58-2.253 3.6-.906 5.413 1.347 2.02 6.76 4.947 10.8 4.273 1.114-.233 3.6-1.114 4.74-2.02.44-.233.233-.233.44-.44l1.58-1.347h1.114c-.233 1.347-.673 1.347-.44 2.693 4.273-.233 10.593-1.114 10.127-6.993-.233-2.486-1.813-3.833-2.253-6.293-.673-3.367.906-5.18.673-7.2-.233-1.813-2.253-4.506-3.16-5.413-3.341-4.066-6.268-5.879-11.24-6.319zm-18.466 55.631c.906.673 4.066.44 4.947 0l5.62-.233c3.367-.233 4.74-.44 4.947-4.066.233-4.273-2.253-3.16-5.413-3.367-2.02-.44-3.16-1.347-4.506-1.813-.44-.673-3.833-3.367-5.18-3.16-.181.466-1.761 11.292-.414 12.639zm48.198 16.213c.233 2.927 2.486 3.16 5.413 2.693 8.78-2.02 6.993-9.686 8.106-17.56.44-3.367 1.813-5.18 2.02-6.086.906-.673 1.347-1.347 2.253-2.486 2.694-3.367 1.347-6.76.906-10.593-2.02.906-3.16 3.16-4.74 1.813-.233-2.927 6.086-4.947 3.367-7.873-.906.233-2.927 1.58-4.066 2.253-4.506 2.253-10.593 3.16-9.453 7.873l.673 1.114c.233 2.693.906 3.833 0 6.76-1.347 3.833-6.993 12.846-7.433 14.633-.44 2.02 1.58 4.506 3.16 3.833 3.833-1.347 8.106-11.033 9.013-12.173l.44-.44c-.647 11.059-9.893 13.312-9.66 16.239zm-34.446 9.22c.44-3.367-.44-5.413-2.253-6.76-1.114-.673-4.947-2.486-6.527-2.486-.906-.673-4.74-1.813-5.62-1.58-.906 1.813-.673 5.413-.233 7.666.233 1.58 1.813 4.506 2.927 5.62.233 1.58.906 2.486.673 4.506-1.58-1.114-1.347-2.693-3.833-4.947-.673 6.293 5.413 13.96 11.473 12.38.906-2.486-.673-4.066 1.114-7.666.906-2.227 1.813-4.014 2.279-6.734zm-13.519-60.345c-3.833-1.114-4.947 4.74-6.993 5.413-.906-1.347-.906-2.486-2.253-2.694-1.58-.233-2.927.673-3.6 1.347-1.114 1.347-2.02 5.413-2.253 7.666-.906 7.433 1.813 11.033 2.02 17.56.44 4.273.673 9.246 2.253 12.846.699-.932 11.939-38.305 10.826-42.138zm108.336 43.251c-.673 1.114-1.114 7.2-.906 9.013 0 3.367.44 6.086.906 9.246 2.02-1.114 3.16-5.62 2.927-9.013-.466-2.719-1.58-7.459-2.927-9.246zm-3.626-11.499c-1.347-3.833-2.927-7.433-4.506-11.033-.906-2.486-3.367-9.686-7.2-6.993-.44.906 1.114 4.506 1.58 5.853.673 2.02 1.114 4.066 1.813 6.086l1.347 6.293c.44 3.16 1.114 5.18-.673 6.293-2.253-3.833-4.74-22.972-7.873-26.132-1.347-1.813-4.506-2.02-3.833.673l.233.673c.233.673.233.44.233.673 0 1.58.906 4.947 1.114 6.993 1.813 13.286-2.486 18.026-2.927 20.486l-.906.906c-4.273 6.76-4.273 3.833-1.813 15.306 1.114 4.74 1.813 8.78 7.666 9.246 1.347 0 2.486 0 2.486-1.58 0-1.114 0-.673-.44-1.114 0-1.347-.44-3.16-.44-4.947s0-3.367.233-4.947c1.347.673 2.927 7.433 2.927 9.246.906 4.273 2.253 3.833 7.873 2.253 3.6-.906 4.273-1.58 4.273-4.74l-.44-2.693c.233-1.58-.44-5.18-.44-7.2-.725-10.593 3.781-8.573-.285-19.606zm-19.58-7.433c-.44-1.58-1.114-2.693-2.253-3.367-.44-.44-2.927-1.58-3.6-1.813-.673-.673-8.78-4.74-9.246-4.947.906 4.506 4.947 14.866 6.76 21.393.44 1.58 1.347 6.76 1.813 7.666.906-.906 5.413-7.666 6.086-9.686 1.114-2.719 1.347-5.853.44-9.246zm-16.446 48.871c-1.347 2.02-3.6 2.927-4.273 3.833-2.693.673-3.6 1.347-7.2 1.347-2.693 0-5.413-.673-6.993 1.114-1.114 1.58-1.58 4.74-1.114 6.76.44 2.693 1.58 3.833 2.253 5.853 1.58 3.367 3.6 4.066 8.106 3.367 10.8-1.58 11.033-2.02 10.8-11.939l-.44-11.033c-.699-.414-.699.026-1.14.699zm67.104-279.477c-1.114-.233-8.339 5.413-9.686 6.293-7.873 5.62-6.086 0-8.106-3.16-3.6-.44-2.693 2.927-4.066 9.919-.233 1.347-.673 2.694-1.347 3.833-.44 1.347-1.347 2.253-1.813 3.16-.906.673-1.813 1.114-1.347 2.694.233 1.114 1.114 2.253 2.02 2.486 1.114-.233 1.347-.906 1.813-1.813.906-.233 1.114-1.347 2.02-2.02.673-.673 1.347-1.347 2.02-2.253 1.347-1.347 2.927-3.16 4.506-4.273 1.114-.44.233 0 .906-.673.44-.44.44-.44 1.114-.906l9.686-7.873c1.114-.906 2.927-2.02 3.6-3.367.259-1.165-.181-1.373-1.321-2.046zm-35.119 218.899c1.58 2.253 4.506.673 6.293-.44 1.347-.906 4.066-2.927 4.066-4.947-2.693-1.813-14.426-.466-10.36 5.387zm-54.284 82.644c1.58.44 6.527 1.347 4.066-2.02-1.347-1.58-5.18-.673-4.066 2.02zm82.67-246.145c1.58 5.62-.233 7.873-1.813 12.846l-3.833 11.473s0 .233-.233.233c0 1.813-2.02 7.873-2.486 10.36-1.58 7.2-2.927 14.866-4.273 22.299-.44 2.253-2.253 9.453-2.02 11.266-3.6 22.972-10.593 34.912-24.319 44.365-13.053 9.013-34.679 14.866-54.051 14.866-18.026 0-40.325-4.066-54.492-14.193-2.253-1.58-7.2-5.853-9.246-7.873-.673-.906-1.114-1.58-2.02-2.253-2.02-2.253-3.833-4.74-5.62-7.2-5.413-7.666-6.76-15.099-8.547-26.132 0-2.486-3.833-19.372-4.74-23.646-4.947-26.806-7.873-35.585-5.413-63.971.233-3.6 2.694-7.873 4.273-9.686l2.02-3.6c.233.233.233 0 .44.44.233.233.233.44.233.673.906 2.02 1.58 7.433 2.02 9.686.44 3.833 1.347 7.873 1.813 11.706l.673 1.813c1.58-2.02-.233-11.033.44-14.426l-.233-1.114c-.233-2.694-.673-15.98-.233-16.653 1.58-.906 2.02-.906 2.927.44 1.347 1.813 5.18 5.413 6.086 7.873.44.673.906 1.58 1.114 2.253l.673.673 1.114 2.694c.44 1.114.906 2.486 1.347 3.833.673 2.694 1.347 5.413 1.813 8.339 1.114 6.76.673 10.593 3.833 16.213.44-2.02-.673-10.127-.673-12.846v-1.114c-.233-.44 0 0-.233-.673l-.44-3.6c-.673-6.76-.673-16.213-.233-22.739 0-1.58.233-2.927.233-4.506l.673-4.066c-.44-2.486.673-6.527.906-9.246.233-4.506 2.253-12.613 3.16-17.119 1.347-6.293 2.02-6.086 10.36-9.919 2.253-.906 4.947-2.02 7.433-2.694 4.74-1.347 4.506-.233 4.506 4.506v20.046c0 2.486-.233 10.593 1.58 11.939l.906-9.246c-.44-1.347.673-14.193.673-16.653 0-1.813.233-11.266 1.114-12.38.673-.673 2.02-1.114 3.16-.673 1.813 2.02.44 12.38.44 15.539l.233 16.213c1.347 16.213 1.114 37.165 5.18 52.238.44 1.58.233 2.253 1.58 2.253V109.04c5.62 2.694 7.2 16.446 10.127 24.086l.233.673c.44-2.927.673-6.527.673-9.453 0-4.066-1.114-5.18-1.813-8.106l-1.813-3.367c-3.16-7.2-9.453-11.266-9.013-26.806.233-2.927-1.347-24.993-.906-26.572v-.233c-.44-1.58-.673-10.127-.906-14.193-.44-8.339-1.58-10.127 3.367-11.033 5.413-.906 8.339-1.347 9.919 4.066.906 2.927 2.02 9.919 2.253 13.053.906 4.947 5.18 29.732 6.76 32.218.673-.673 5.18-7.2 5.413-7.666 2.02-3.16 2.927-5.413 4.273-9.013 1.347-4.273 6.086-7.433 10.36-8.78 2.927-.906 12.613-3.833 15.539-3.16.673 2.02 0 5.413-.44 7.666l-1.347 6.993v.233l-.233 3.833c-.233 6.293-5.413 41.879-3.16 44.365 1.114-2.02 4.74-20.719 5.413-24.552.673-3.6 3.833-24.319 4.506-25.666.233-1.813.906-3.833 1.114-5.853.673-4.947-1.114-7.2 2.02-6.527 2.02.44 11.706 4.506 13.726 5.413 6.76 3.367 4.506 1.114-4.74 13.286l-1.114 1.347-.233.233c-.233.673-.906 1.347-1.58 2.02-.44.673-1.114 1.58-1.58 1.813-.673 2.02-4.506 5.413-4.74 7.433h.233l.673-.44c6.086-4.066 3.6-2.927 8.78-6.993 1.347-1.813 9.686-10.8 11.033-11.473l8.547 33.565c.44 1.813.906 2.694 1.347 4.066 5.413 1.813 7.433-6.293 10.8-2.927 2.02 2.02-.233 9.919-3.367 11.939-2.486 4.273-4.947 7.433-4.74 14.193 4.506-.906 2.253-5.853 6.293-9.453l.233-.673s.44-.44.44-.673c.906-1.347 1.813-2.02 2.693-3.833 1.347-2.927 1.114-4.273.673-7.433 2.693 1.114 6.293 7.666 2.02 12.613-1.813 2.253-3.367 8.339-4.506 11.473l-.906 1.813h0c-1.347 6.086-4.74 13.286-4.273 20.279 1.114-1.114 2.693-6.293 3.367-8.339.673-2.02 2.253-7.666 3.16-9.013.233-2.02 4.273-9.686 6.293-11.706zm-118.022 56.305c-1.58-11.706-12.846-21.626-26.572-19.813-11.706 1.58-21.859 12.38-20.046 26.132 1.58 11.706 12.613 21.393 26.339 19.606 11.939-1.606 22.299-11.965 20.279-25.925zm28.593 41.205c-9.919 2.253-15.539-.233-18.026.233-1.114 2.486.673 2.486 2.927 2.694 4.273.673 15.306.44 17.793-1.114.233-.233 2.046-3.16-2.693-1.813zm46.411-60.811c-13.96-2.02-25.226 7.433-27.039 19.139-2.253 13.96 7.873 24.785 19.606 26.572 14.193 2.253 24.993-7.433 27.039-19.139 2.227-13.96-7.899-24.759-19.606-26.572zm-114.422 84.69l-7.873-3.6c-1.114-.233-2.253 0-2.486 1.114-.44 1.347 1.58 2.253 3.833 3.6.906.44 1.58.906 2.253 1.347s1.347 1.114 2.486 1.347l1.813 1.347c-.673.906-2.486 1.347-3.6 2.253-1.813.44-5.62 2.927-6.293 4.066 2.253.44 6.293.44 7.873-1.114 2.927-.233 4.506-1.58 8.106-.673s4.947 3.6 5.853 2.694c1.347-1.114-2.02-2.693-4.273-4.273-2.02-1.347-5.18-3.16-4.273-4.066h.233.233c.906 0 3.833 2.02 4.74 2.486 1.813.906 3.6 1.813 5.18 2.927l.906-1.114c-2.253-1.58-4.74-2.927-7.2-4.273-1.424-1.14-6.371-3.833-7.511-4.066zm22.299 5.853c-.906.906-1.114.906-1.58 1.813-2.486 2.486-5.853 7.666-8.339 11.706l-7.2 12.846c5.413 0 20.952-4.506 22.066-6.76 1.347-.44 2.253-1.813 2.486-3.367.233-1.347.673-3.367.906-4.74h-.233c.673-.673.673-1.58.906-2.486.233-.673.44-1.347.673-2.253.44-1.58 1.114-3.6 1.347-4.947-2.486-1.347-6.527-1.813-7.433-2.253-1.58-.906-1.347-1.813-3.6.44zm53.145 104.036c-1.114-3.367-4.74-6.76-7.666-7.666 0 3.6-.44 18.699 1.813 21.393.44.44 1.58 1.347 2.486.673.673-.44.906-1.58 1.347-2.486 1.58-3.108 3.6-7.614 2.02-11.914zm-24.552-4.04c-2.253 2.02-2.927 2.02-6.76 2.253-5.18 0-10.8-.44-14.193-3.16l-.233-.233-.233-.233s-.44-.233-.44-.44c-1.114-.906-2.02-2.253-2.693-1.347-.673 1.813-.673 11.033-.906 13.96 0 2.486 0 4.947 1.347 6.293 1.114 1.114 3.6 1.813 5.62 1.347.673-2.486.233-4.066.44-6.527.233-2.693 1.114-3.367 1.347-4.506.44 13.96-1.347 11.033 5.413 11.939 2.927.44 2.694 0 4.273-1.347.233-1.58 0-3.367 0-4.947 0-1.114-.233-3.833.44-4.506.44 1.347 1.114 2.486 1.58 4.273a35.75 35.75 0 0 0 1.114 4.506c1.347 3.16 6.293 1.347 7.666-.233 2.02-2.02 1.813-5.853 2.02-9.686 0-2.486.44-9.013 0-10.8-2.176-.207-3.988 1.813-5.801 3.393zm-46.385-70.057c-2.927 1.58-6.293 7.2-6.76 11.939-.44 3.833 1.58 12.38 2.927 15.539 2.694-4.947 3.833-16.213 5.413-22.739.673-2.486 2.694-6.76-1.58-4.74zm9.246 29.525c-.906-9.246-4.273-17.793-2.927-25.226.233-1.58 2.02-4.74 0-4.74-.673 0-1.347.906-1.58 1.58-2.02 3.16-1.58 7.2-2.253 11.266-2.486 15.306-7.433 17.793-4.273 29.732 1.813 6.76-.906 11.706-.44 15.98-.673.906-.44 2.02.44 2.693.906.44 4.947.44 5.853 0 1.347-.673.906-3.367.906-5.413.233-.673.233-1.813.44-2.693.233-1.114.673-1.813.906-2.486.673.44.233-.44.673.906l.44 2.693c.233 1.347 0 2.927.673 3.833 2.02.233 1.813-1.58 2.253-3.16.673-3.367 1.347-6.527 1.114-10.127l-.906-4.506c.026-1.347-1.114-8.081-1.321-10.334zm58.558 35.119c2.694 2.02 4.74 3.833 9.453 4.273 2.253.233 4.273 0 6.293-.44 2.486-.673 2.927-1.114 4.74-1.813 2.02-1.58 1.813-1.347 3.367-3.16 2.927-4.066 2.02-4.947 1.813-10.36 0-2.253-.233-3.833-2.927-3.16-1.114 1.58-1.347 4.506-1.813 6.76-.673 3.16-.906 4.066-2.253 6.086l-1.347.44c.673-2.693 1.347-4.506 1.813-7.666 1.114-8.547 2.694-10.127-5.18-7.2-9.246 3.6-9.919 2.693-11.033 10.593l-.673-.673-2.253-3.6c-1.114-1.347-4.066-.906-4.273.906-1.813 6.76 2.694 7.899 4.273 9.013zm-20.952-13.053c-1.813-1.114-4.273-2.927-6.76-2.693-1.813 2.253-1.114 4.74-1.347 7.873-.44 3.16-1.114 4.74-2.253 7.2-1.813 4.066 1.58 8.547 8.78 2.927 3.367-2.486 6.527-3.833 6.993-7.2.673-5.646-.699-5.413-5.413-8.106zm22.739-5.18c-.906-5.413-7.433-11.266-14.193-10.36-1.813.233-2.253.673-3.16 2.02-2.02 3.6-6.086 6.76-5.62 9.246.233.906 5.853 5.853 9.686 5.413 1.58-.233 2.694.233 4.273 0 2.253-.233 4.947-2.02 6.993-2.927 1.787-.699 2.46-1.14 2.02-3.393z" fill="#d1a971"/><path d="M241.717 174.824c.673 4.066-2.253 7.433-5.62 8.339-9.013 1.813-12.173-12.38-2.486-14.193 4.066-.906 7.433 2.253 8.106 5.853zm-103.596-5.853c-9.013 2.694-4.947 16.446 4.066 13.519 8.547-2.486 4.947-16.239-4.066-13.519zm107.196 20.719c-4.74 1.114-3.16 8.78 2.02 7.2 4.066-1.114 2.952-8.339-2.02-7.2zm-95.024 0c-4.066 1.347-2.693 8.547 2.486 6.993 4.04-1.14 2.901-8.573-2.486-6.993z" fill="#fff"/><path d="M155.681 63.328c.233.233 0 0 0 0zm3.16 1.58c.233-3.6.44-2.02 1.58-3.833h.906V41.029c0-4.506.233-5.853-4.506-4.506-2.486.673-5.18 1.813-7.433 2.694-8.547 3.833-9.013 3.6-10.36 9.919-.906 4.506-2.927 12.613-3.16 17.119l1.114.44c.906.233.906.44 3.16 0 .233-.44.233-.44.233-.673l.233-.233c.44-.44.673-.44 1.58-1.114.673-.673-.233-1.114 3.16-.673 1.114-1.813 0-.233 3.16-2.253l.44-.233c1.114-.673 1.58-2.693 6.293 0h.233l.233.233h.233v1.347.233s0-.233 0 0c.233.233.233.233.233.44h0c-.673-1.58.44.673 0 0 0 1.347 0 1.813-.233 2.927 1.114-.44 0 .233.673-.673l.673-.44s.233-.233.44-.233l.44-.233c.44-.207 0 .259.673-.207zm17.119-32.193c-4.947.906-3.833 2.694-3.367 11.033.233 4.273.44 12.613.906 14.193v.233-3.16l.673 1.58 1.347-.906c.44-.233 0 0 .233-.233.673-.44 1.114 0 2.02-1.347.44-.673.673-1.813 1.347-2.253.44-.233.44 0 1.114-.673.44-.44.44-.673.673-1.114 1.114.44.233.673 1.58 1.114 2.253.673 3.16 1.347 4.066-.233.233-.44 0-.673.673-1.114.44-.233.44-.233.673 0-.233-3.16-1.347-10.127-2.253-13.053-1.14-5.413-4.066-4.973-9.686-4.066zm39.185 23.879c-4.273 1.347-9.013 4.506-10.36 8.78 1.58.673 1.347 0 2.253 0 1.347 0 0 .44 1.813.673.906 0 2.253-.233 2.486-.233 2.02 0-.673.906 1.813.673l.906-.233h.233s.233-.233.44-.233c.906-.44 2.02-.906 3.16.44l.906.906c.906.44 1.114.44 2.253.44 0-.233-.673-1.114 2.927-1.114 1.58 0 2.927.233 4.947.233v1.347-.207l1.347-6.993c.44-2.253 1.114-5.62.44-7.666-2.952-.881-12.639 2.046-15.565 3.186zm48.198 37.813l1.813 3.6c.44.906 1.114 1.813 2.253 2.02l-8.547-33.565c-1.347.673-9.686 9.686-11.033 11.473l2.02 2.253c.906.906 1.347.44.673 1.813-.44-.673.44-.233-.906-.673h-1.347c2.02 1.347.673-.233 2.253 2.253.673.906.673.673 1.347 1.114 1.813 1.114 0 .906 2.927 1.813.44 0 .673 0 .673.44.44 3.833 2.253 3.367 4.066 3.6.207 3.652 1.554.259 3.807 3.859zm-21.16-23.18h0c1.347.673 1.58.44 3.16.44.233.673.233.44.44 1.114.233 1.58-.44-.233 0 1.347l.233-.233 1.114-1.347c9.453-12.173 11.706-9.919 4.74-13.286-2.02-.906-11.706-4.947-13.726-5.413-3.16-.673-1.347 1.58-2.02 6.527-.233 2.02-.906 4.066-1.114 5.853 0 .906 0 1.58.233 2.486s.44.906.44 2.253c.906-2.693.44-1.58 2.253-2.486l.44.673c.673.673 0 0 1.114.44h.233c.906.44.44.44 1.347.906.44.233.44.233.673.233zM168.76 33.829c-1.114-.44-2.486 0-3.16.673-.906 1.114-.906 10.8-1.114 12.38-.233 2.694-1.114 15.306-.673 16.653.233 1.114.233 1.347 1.347 2.02 1.58 1.114.44.673 1.347 2.02.44-.44.44-.233 1.114-.44l1.58-1.58s.233 0 .233-.233c0-5.413-.44-10.8-.233-16.213 0-2.875 1.347-13.26-.44-15.28zm126.102 33.125c-1.114-.233-8.339 5.413-9.686 6.293-7.873 5.62-6.086 0-8.106-3.16-3.6-.44-2.693 2.927-4.066 9.919.233-.233.44-.233.673-.233-.44-.44 1.347.44 0 0h0s.233.233.673.44c.44.233-.44.233.673.233 2.02-.233-.233-.233 2.486.233h.673 0c-1.114-.233.233 0 0 0 1.58.233.44.44 2.927.44 0 .233.233.673.233.906 1.114-.44.233 0 .906-.673.44-.44.44-.44 1.114-.906l9.686-7.873c1.114-.906 2.927-2.02 3.6-3.367-.207-1.373-.647-1.58-1.787-2.253zm-7.64 56.071c-1.813 2.02-6.086 9.686-6.293 11.706.906.673.673 1.114-.233 3.833l-1.58 3.6c-.673 2.253.233 2.486-.673 5.413l-.44 3.6c1.114.44 1.347-2.253 1.347-3.16h0l2.253-.673c.673-.44.233-.673.673-.233 0 0 0-.233.233-.233l3.833-11.706c1.58-4.947 3.367-7.2 1.813-12.846zm-170.053-22.299s0-.233 0 0c.233 0 .233 0 .233.233l.233.44c0-.906-.44-1.813 1.813-2.694 1.58-.673 1.813.233 3.16-1.114l.906-1.114c.44-.673 0 .233.44-.673s.906-2.927 1.114-4.273l.906-.233c-.906-2.486-4.506-5.853-6.086-7.873-.906-1.347-1.58-1.347-2.927-.44-.44.673-.233 13.96.233 16.653v1.088zm162.387.44c-3.367-3.367-5.413 4.74-10.8 2.927-.233 1.58-.673.44-.44 2.927 1.58.906.44 0 1.347 1.58.906 1.114 2.693 2.486 3.833 3.367.44.44.233 0 .44.44l.44.44s.233 0 .233.233c.44.233 0 0 .44 0s.673 0 1.114.233c3.16-2.227 5.413-10.101 3.393-12.147zm-1.58 20.279c.233 1.114.233 0 .673 1.58.233.906.233 1.347.233 2.253.673 1.114-.233 4.506-.233 6.293l.906-1.813c1.114-3.16 2.693-9.246 4.506-11.473 4.273-4.947.673-11.473-2.02-12.613.44 3.16.673 4.506-.673 7.433-.906 1.813-1.813 2.486-2.693 3.833 0 0-.44.44-.44.673-.44.44-.233 0-.233.673.647 1.347-.233 1.14-.026 3.16zm-36.259 132.655c0 1.114.906 3.16 3.16 3.833 1.347-.906 8.339-10.36 8.547-12.613-1.813-.233-3.367 1.114-4.506 2.02-1.554 1.347-6.967 5.413-7.2 6.76zm18.026 31.752c1.58 2.253 4.506.673 6.293-.44 1.347-.906 4.066-2.927 4.066-4.947-2.693-1.813-14.426-.466-10.36 5.387zm-142.781 10.8c-.673-.44-2.02-1.58-2.927-1.813-1.58-.233-2.253.673-2.02 2.253.44 3.367 3.16 8.339 5.18 8.339 2.694 0 3.6-6.06-.233-8.78zm5.853-56.305c-1.114-.233-2.253 0-2.486 1.114-.44 1.347 1.58 2.253 3.833 3.6.906.44 1.58.906 2.253 1.347s1.347 1.114 2.486 1.347l.233-.44c.233-.233 1.114-.906 1.114-2.02.233-.673 0-.44-.233-1.347l.44-.233zm42.552 79.277c-.233-.44-.233.44-.233-.906 0-2.927.906-.44-.673-2.693l-.233-.233v-.233l-2.486-.233-3.367.233c-.673 2.253-.44 3.367 1.347 4.066 1.347.44 3.16 1.114 4.74 1.347.44-.44.44-.44 1.347-.44l-.906-.44c1.14 0-.207.207.466-.466zm-38.279-68.451c-1.813.44-5.62 2.927-6.293 4.066 2.253.44 6.293.44 7.873-1.114l-.44-.233c.207-1.813-.233-1.606-1.14-2.719zM270.776 92.387c1.114-.233 1.347-.906 1.813-1.813-1.114-.673-.44-2.02-2.693-2.693l.233-.906c-.906.673-1.813 1.114-1.347 2.694.181 1.373 1.088 2.279 1.994 2.719zM158.4 312.658l6.76.44c-.233-.673-1.813-.906-1.114-2.02h-.673c-.673-.233-.233 0-.673-.44-.906 0-2.02.233-2.927.233-1.606.207-1.606.44-1.373 1.787z" fill="#80a149"/><path d="M271.682 191.477l1.813-.906c-3.6 22.972-10.593 34.912-24.319 44.365-13.053 9.013-34.679 14.866-54.051 14.866-18.026 0-40.325-4.066-54.492-14.193-2.253-1.58-7.2-5.853-9.246-7.873-.673-.906-1.114-1.58-2.02-2.253-2.02-2.253-3.833-4.74-5.62-7.2-5.413-7.666-6.76-15.099-8.547-26.132.906.44.906 2.02 1.813 2.927.673.673 0-.233.44 1.347l1.58 3.6c1.114 2.486 1.813 2.253 1.813 5.853 1.347 0 1.347-.44 1.813.906.906 2.486 0 .906 1.813 1.813 0 .673 0 .906.233 1.58.233 1.114.44.673.673 1.114l1.114 1.813.233.233.233.233.44.673c1.114 1.58.233 2.253 2.02 3.6 1.347.906 1.114 2.253 3.367 3.367.673.44.44.233.906.906l.673 1.114c.906.906.906.44 1.813.906 1.114.44.673.906 2.02.906v.233h0l.233.233c1.114 1.114 2.694 1.347 4.273 1.347 0 .233 0 .233.233.44l1.114.673c1.347.673 1.347 0 2.927 1.114l.44.233c.44.233.44.233.906.44l2.253 1.347c.44.673.906.44 1.813.906l3.367 2.02c.906.673 0 .673 1.347 1.347.673.233 1.347.44 1.813.673l5.18 2.02c.233 0 .44 0 .673.233l2.02.673c.673.233 1.58.233 2.486.233.673 0 4.273 1.114 6.993 1.347 1.347.233 3.833.233 4.947.44 1.114.233.44.44 2.253.44l7.873.44c5.413 0 16.886.673 21.393-.233 2.02-.44 3.16-.44 4.066-.44l.906-.44c1.347-.44 2.927-.233 4.273-.673 0 0 .44 0 .44-.233l1.58-.44c3.833-.906 1.58-.906 6.086-2.253.673-.233.44 0 1.114-.44l12.613-6.293c.44-.233.44-.44.673-.906.906-.906 1.58-.673 2.253-1.58 1.114-1.58 2.253-1.347 3.16-2.486l1.347-1.347c.906-.44 2.253-.906 2.694-1.58l1.347-1.813.44-.233c1.58-1.347-1.347-.673 2.927-3.367h.233l.44-.233c.673-.233.673 0 1.114-.673.233-.44.233-.673.673-.906h.233c.673-.44.906-.906 1.347-1.58l1.58-2.927c.44-.906.44-.44.673-1.58v-1.58h.673c0-.906.233-1.347.233-2.693l.673-.233h.233c0-3.16.673 1.114.906-6.086h.233 0 .233c-.233.233.673-.233 0 0h0s.673-.906.906-1.114c.44-.673.673-1.347 1.114-1.58l.673-.44v-.906c.388-1.528.855-1.528.855-3.108zm-94.376 61.044c-2.253-.233-5.413-.673-7.433-.673-2.693 4.273-6.993 21.626-6.527 24.319h2.486c-.673 1.58-2.253 3.6-.906 5.413 1.347 2.02 6.76 4.947 10.8 4.273 1.114-.233 3.6-1.114 4.74-2.02.44-.233.233-.233.44-.44-6.086-1.58-4.273.906-8.106.233l-.906-.233c-2.486-.906-.44-.233-2.693-1.813 0-2.253-.44-4.066-.233-6.086l2.694-11.266c.673-1.347 0-.673.673-1.347.673-.906.233.906.906-2.02v-.233c.233-.44 2.694-2.486 5.413-1.58 1.347.44.673.233 2.02 1.114a3.86 3.86 0 0 0 2.253.673l.906.233c1.813.673.44-.233 1.347 1.114 1.813 2.253.44 0 2.02 3.16l1.347 2.02c.906 1.58 0 .673 1.114 2.693.906 1.347.906 6.76.673 9.013l-5.18 2.927c-2.02.673-.673.233-2.253-.673-1.347.44-.233 0-.673.44h1.114c-.233 1.347-.673 1.347-.44 2.693 4.273-.233 10.593-1.114 10.127-6.993-.233-2.486-1.813-3.833-2.253-6.293-.673-3.367.906-5.18.673-7.2-.233-1.813-2.253-4.506-3.16-5.413-3.082-3.781-6.009-5.594-10.981-6.034zm42.785-122.969l.673 1.114c0 .233.233.44.233.44.673 1.114 2.02 1.114 3.6.906 2.927-5.853.906-2.253 2.02-6.76.44-1.58.44-2.02.673-3.833.233-1.347.673-2.693.906-3.6.673-3.16.906-10.127 2.253-15.773.233-1.58 4.506-24.993 4.74-26.806 0-1.813.44-2.486.673-4.066 0-1.347-.233-1.347-.44-2.253-.233-.906-.233-1.58-.233-2.486-.673 1.347-3.6 22.066-4.506 25.666-.673 3.833-4.273 22.532-5.413 24.552-2.486-2.486 2.694-38.279 3.16-44.365-.906.44-.673 0-1.58 1.347v.233s-.233.233-.233.673c-.233 1.58-.233 2.694-.44 4.506l-1.347 8.106c-.233 2.927-.673 5.62-1.114 8.339-.233 1.347-.233 2.927-.44 4.066l-1.114 4.74c-.673 2.02-.233-.44-.673 2.694v.233.233.233l-.233 1.114v2.486c0 1.347-.673 5.413-.906 8.547 0 2.927-.906 6.086-.44 8.547-.026.259-.026.725.181 1.165zm-31.519 157.207a43.69 43.69 0 0 0-9.686 1.813c-3.367 1.114-3.16 2.693-2.02 6.293l.44 1.114c.44-.673-.233-.44.673-.44 1.114 1.114.673-.233 3.16.44h.233c1.114.44.906.233 1.347.906 2.02 0 1.58.233 2.694-.673 2.694.44 1.347.673 2.694.906 1.58.233 2.02-.44 3.16 0l.233-.233h.44.233c-.233 0 .233 0 0 0h.233 1.114l1.347-.44c1.58-.44.906-1.114 3.367-2.693l1.347-.233.44-.233c.906-.44 2.02-.233 2.927-.233 1.114 0 2.486 0 3.367-.233 2.02-.233 3.6-1.813 2.694-3.833-1.968-2.227-16.368-2.693-20.434-2.227zm18.699-33.565c-2.253.233-2.693.44-4.273 1.347-3.367 2.253-5.18 5.413-6.993 9.453l-1.813 3.833c-.44 1.347.233 2.927 1.114 4.066.44-.673 1.114-2.693 1.347-3.833-.44 0 0 0 0 0h0 0 .44c.906-2.927 4.74-7.2 6.993-8.547 1.58-.906.906-.44 1.347-1.347 2.694 0 1.58-.673 3.16-.906 2.02-.233 2.253.233 3.367.906 1.58.673 1.347.233 1.813 2.02.44 1.347.44 1.813.44 3.833h.233l2.02 1.347c.673.673.44.673.44 1.347h1.813c0 2.486.906 3.6.906 5.62v6.527l-3.6.44c-.233.44-.233.673-.44 1.114-.233.673 0 .233-.673.673 0 0-.233 0-.233.233 1.114 0 .44-.233.906.233l-2.02 4.066c3.16-.673 5.853-2.927 7.873-4.506 1.58-1.347 2.02-1.347 1.347-4.273-.906-4.273-4.74-22.299-5.62-24.086-3.134-.233-6.76.207-9.893.44zm-33.125 104.943l-.233 1.813c-1.114.233.44.673-1.347.44-1.347-.233.906-.233-2.486-.673-.44 0-1.114-.233-2.02-.233 0 0-.44-.44.44-.44-.673 0 0 0-.673-.233l-1.114-.44c-2.02-.673-.673-.233-1.58-1.114-.673-.906 0-.233-1.347-.673s-1.347-.906-1.347-1.114c-.44 0-1.347 0-1.813-.44-.44-.44-.233-.906-.233-.906l-.233-.44c-.44-.673-.233.44-.44-.906-.233-1.58 0-.44 0-.906v-2.02c0-1.58-.233-.44.673-.906l-.233-.233-.233-.233s-.44-.233-.44-.44c-1.114-.906-2.02-2.253-2.694-1.347-.673 1.813-.673 11.033-.906 13.96 0 2.486 0 4.947 1.347 6.293 1.114 1.114 3.6 1.813 5.62 1.347.673-2.486.233-4.066.44-6.527.233-2.693 1.114-3.367 1.347-4.506.44 13.96-1.347 11.033 5.413 11.939 2.927.44 2.694 0 4.273-1.347.233-1.58 0-3.367 0-4.947 0-1.114-.233-3.833.44-4.506-.388-.259.751-.699-.622-.259zm-15.073-84.897c-3.833-1.114-4.947 4.74-6.993 5.413 0 0 .233.233.233.44.673 1.114 0 1.114-.44 2.693-.44 1.813.233.906-.673 3.367-.906 2.486-.906 4.506-1.114 6.527-.44 3.833-3.367 7.2-3.367 12.38l-.233-1.114s0-.233-.233-.233l-.233-.44c.44 4.273.673 9.246 2.253 12.846.673-.673 11.914-38.046 10.8-41.879zm25.433-140.994v-.673c-.207 0-.207.233 0 .673zm-14.633-36.259c.233 1.347.233 2.927.44 4.273.673 5.413 0 4.74.906 9.453.233.906 0 1.347.233 2.02.233 2.02.233-.673.906 3.6.233 1.347.44 2.486.906 3.367.906 1.813 1.813 3.833 3.6 3.16 1.114-.44 1.114-2.693.906-3.833 0-1.114-.233-1.347.233-2.253 2.02 1.813 1.813 4.066 2.486 6.293.233.906.44 1.114.906 2.02.44 1.347 1.813 5.413 2.253 6.293.44.44.673.44.906 1.114.233 0 .44.233.673 0 .44.906 0 .906.673.673l.44-.233h.233c-2.927-7.666-4.506-21.393-10.127-24.086v12.173c-1.347 0-1.114-.673-1.58-2.253-4.066-15.099-3.833-36.026-5.18-52.238 0 0-.233 0-.233.233l-1.58 1.58c0 6.293 1.114 9.686 1.114 16.653-.466 4.791.207 7.718.881 11.991zm73.191 210.352l-3.367-8.106c-.233-.673-.44-1.114-.673-1.813-.673-1.347-1.58-1.813-1.58-3.6.44-.44-.673-.44.906-.233-.673-.673-8.78-4.74-9.246-4.947.906 4.506 4.947 14.866 6.76 21.393.44 1.58 1.347 6.76 1.813 7.666.906-.906 5.413-7.666 6.086-9.686-1.14-.207-.233 0-.699-.673zm-15.306 40.092c-1.347 2.02-3.6 2.927-4.273 3.833 1.114.44.673.233.906.673.906 1.813-2.486 3.367-1.114 4.947 1.58 2.02 2.253 1.813-1.114 6.086-2.253 2.927-2.927.906-3.16 3.6-1.813-.233-.906.233-4.066-.44-2.927-.673-.44-.673-2.693.233-.673.233-.906.233-1.813.233 1.58 3.367 3.6 4.066 8.106 3.367 10.8-1.58 11.033-2.02 10.8-11.939l-.44-11.033c-.699-.673-.699-.233-1.14.44zm-16.446-51.125h0c0-.233.906-.906 0 0 .233-.233.233-.233.44-.233l.906-.44c.906-.233.673 0 1.114.44l1.114.673c3.367.906 1.813-.44 4.506.906l.44.233c.673.44.673.673.906 1.347l.673 1.114c.673 1.114 0 1.114 0 1.813 0 2.02.233-.233.673 1.58.906-.673 1.347-1.347 2.253-2.486 2.694-3.367 1.347-6.76.906-10.593-2.02.906-3.16 3.16-4.74 1.813-.233-2.927 6.086-4.947 3.367-7.873-.906.233-2.927 1.58-4.066 2.253-4.506 2.253-10.593 3.16-9.453 7.873zm38.745 42.578v.233c0-.906-.673-.44-1.347-1.347-.906-1.347.233-.233-1.58-2.486-2.486-2.693-.906-9.686-2.02-13.286-.44-1.347-2.02-4.947-2.02-6.086l-.906.906c-4.273 6.76-4.273 3.833-1.813 15.306 1.114 4.74 1.813 8.78 7.666 9.246 1.347 0 2.486 0 2.486-1.58-.233-1.14-.233-.699-.466-.906zm-75.004-42.811c-.233-1.58-1.813-5.413-2.693-6.293-1.58 0-2.253.44-3.6-.44-1.114-.906-4.74-4.273-6.993-5.853-.44.673-1.347 6.293-1.58 7.666-.233 1.813.673 1.813 1.58 2.693 1.114 1.114 1.114 1.58 2.694 2.02.233-.673-.233-.44 1.813-.44.906 0 1.347 0 1.813.233 2.253.44 2.486.233 2.486 2.927h-.673c1.554 1.787 5.62.207 5.154-2.512zM126.855 97.567l3.833 21.626c.673 2.694.44 4.74 1.114 6.527l.233.906c.44 2.02-.44-.673 1.813 2.694.233.44.233.44.44.906h1.58l1.347-.44c1.813-2.253-1.58-13.286-1.813-15.773-.233-1.114-.233-1.58-.906-2.253 0 2.927 1.114 10.8.673 12.846-3.16-5.62-2.693-9.453-3.833-16.213-.44-2.927-1.114-5.62-1.813-8.339-.44-1.347-.906-2.694-1.347-3.833l-1.114-2.694c-.44-.673 0-.233-.673-.673.699 4.947.466 2.927.466 4.714zm101.136 226.125l-1.347-20.279c-4.74 2.02-4.506 12.38-4.506 17.119 0 2.486.906 3.6 2.253 4.74 4.04 2.46 3.807 0 3.6-1.58zm7.64-36.492c1.58-.44 3.833.673 5.853-.906l.233-.233c-1.58-5.62-5.413-2.693-11.266-8.106-1.114-.906-2.253-2.486-3.833-2.693 0 2.02.673 8.106 1.813 9.246.44.44 6.293 3.6 6.993 3.833.207-.906 0-.673.207-1.14zm38.512-156.741c1.813-1.813 1.813.233 3.833-3.833.44-.906.233-.906.906-1.58 0-.906 0-1.58-.233-2.253-.44-1.58-.44-.44-.673-1.58-.44-2.02.673-1.813-.233-3.367-4.066 3.6-1.58 8.547-6.293 9.453-.233-6.993 2.253-9.919 4.74-14.193-.44-.233-.673 0-1.114-.233h-.44s-.233 0-.233-.233c0 2.694-2.693 7.433-3.833 9.453-.44.673-.673 1.347-1.114 2.253-2.02 3.833-1.813 3.6-1.813 8.106 5.154.466 3.574.932 6.501-1.994zm-38.279 123.409c-.673-1.347-.906-3.367-3.16-5.18l-10.593 3.16c.673 2.253 1.347 3.16 3.16 3.6 2.486.906 1.813 1.347 4.74 2.02-1.347-1.58 2.927-1.347 2.927-1.347 1.347-.233 0 .233 1.58-.906 1.813-1.58.44-1.114 1.347-1.347zm-12.38 92.33c2.02-1.58 1.813-1.347 3.367-3.16 2.927-4.066 2.02-4.947 1.813-10.36 0-2.253-.233-3.833-2.927-3.16-1.114 1.58-1.347 4.506-1.813 6.76-.673 3.16-.906 4.066-2.253 6.086.44.44.233 0 .233.673v.906c1.58.699 1.347.466 1.58 2.253zm-45.505-35.792c-2.02-.673-8.78-1.347-10.36-.233h1.347c.906.233.673.44.906 1.347.673 2.253 2.694 1.58 3.6 1.58 1.58 0 .673.233 2.486 1.114l.44.233c2.927 1.347 2.486.906 3.6 1.813 1.114 1.114 3.16 0 4.273 1.813 1.114-.44 1.58-1.58 1.347-2.927-1.114-2.046-4.921-3.833-7.64-4.74zm102.923-175.906c-.906 1.347-2.486 6.76-3.16 9.013-.673 2.02-2.253 7.2-3.367 8.339-.44-6.76 3.16-14.193 4.273-20.279-1.114.906-.906 2.02-1.813 3.6-2.253 3.833-1.114 2.486-2.486 6.527-.673 1.813-2.694 10.593-1.813 12.38l.44.233c2.253.44 2.927-.673 2.927-.673.44-.233.906-.673 1.114-.906.673-.906-.233-.906 1.114-1.347l.44-3.6c.906-2.927 0-3.367.673-5.413l1.58-3.6c.984-3.134.984-3.367.078-4.273zm-166.66-32.866c-.233-2.02-1.114-7.666-2.02-9.686 0-.233-.233-.44-.233-.673-.233-.44-.233-.233-.44-.44l-2.02 3.6c.673 0 .906.233 1.114 1.813.44 2.486.44 6.293.673 8.339l1.114 4.74v.233.233l.233.673c.673 2.253.673.673 1.813 2.694v.233h0 1.114c-.207-3.885-.881-7.925-1.347-11.758zm38.745 147.961c-.906.906-1.114.906-1.58 1.813l3.16 1.114h.233l1.114.673c.673.233.906 0 1.58.44l2.486 1.347c.44.233 1.114.44 1.347.906.44 1.114.233 3.367.233 4.74.673-.673.673-1.58.906-2.486.233-.673.44-1.347.673-2.253.44-1.58 1.114-3.6 1.347-4.947-2.486-1.347-6.527-1.813-7.433-2.253-2.046-.44-1.813-1.347-4.066.906zm-18.466-139.181c.233.673 0 .233.233.673.673-2.927-.233-7.2.233-10.593l.44-6.293c.44-5.18.906-11.266.906-16.653-.233-.673-1.114-.44-1.58-2.02l-.673 4.066c-.233 1.58-.233 2.927-.233 4.506-.44 6.527-.44 16.213.233 22.739zm30.172 188.053c-.44-.673-3.833-3.367-5.18-3.16-.233.906-2.02 11.473-.673 12.846.906.673 4.066.44 4.947 0h-1.58c.233-1.347.44-.44.44-2.486 0-1.347 0-2.02.233-3.16.233-.881.906-3.807 1.813-4.04zm99.556 34.679h-1.347-.233c-.233 0-.233-.233-.233-.233-1.114 0-1.347.233-2.02.673-2.02 1.114-2.486.44-3.833 2.693 0 0-.233.233-.233.44v.233.233h-2.02c-.906 0 0-.233-.906 0l-.673.233c.906 4.273 2.253 3.833 7.873 2.253 3.6-.906 4.273-1.58 4.273-4.74l-.44-2.693zm-1.813-.233h0c.466-.44 0-.207 0 0zM160.653 71.668s0 .233 0 0l2.486 3.16v.233c.233-.233-.233-.673.906-.233l.44.233c0-2.253.673-.906 1.813-2.693.673-1.347 0-1.813 0-4.273-.906-1.114.233-.673-1.347-2.02-.906-.673-1.114-1.114-1.347-2.02l-.906 9.246c-1.813-1.347-1.58-9.453-1.58-11.939h-.906c-1.347 2.02-1.347.233-1.58 3.833.233 2.253 0 4.273.673 4.74 1.554 1.062 1.114 1.062 1.347 1.735zm2.927 252.697c-.906-.673-4.74-1.813-5.62-1.58-.906 1.813-.673 5.413-.233 7.666.233 1.58 1.813 4.506 2.927 5.62 0-.906 0-1.347.673-2.253l.233-.233.233-.233c1.813-2.253 0-6.293 0-6.293l.44-1.813c.673-.881 0-.647 1.347-.881zm37.372-40.092c4.066.44 7.873 1.813 11.266-.906.673-.673.44-.44.906-1.114-3.16-2.253-10.8 1.347-14.633-.906l-.44-.233c-1.58-1.114-.906-.44-1.813-.906l-.233-5.18c0-.233 0-.233-.233-.233 0 1.58 0 2.693-.233 4.273-.207 4.765-.881 4.532 5.413 5.206zm-55.838 35.818h0l-2.02 4.506-.233.673v.673c0 2.486.44 2.02-.906 3.367l-.233.233s-.233 0-.233.233c.673.44.233-.44.673.906l.44 2.693c.233 1.347 0 2.927.673 3.833 2.02.233 1.813-1.58 2.253-3.16.673-3.367 1.347-6.527 1.114-10.127l-.906-4.506zm40.299-205.172c-.233-1.114 0-1.58-.44-2.486l-.233-.44c-.44-1.114-.673-2.253-.673-3.833-1.347-.673-1.813-1.813-1.813-3.367-1.58-.906-.673.233-1.58-1.58-1.58-2.927-1.58-4.066-2.253-5.413l-.233-.233v-.233l-1.114-1.58c-.906-1.813-1.347-7.666-1.813-10.127l-.233-.906c-.44 15.539 5.853 19.606 9.013 26.806zM174.38 303.646c.233-4.273-2.253-3.16-5.413-3.367.233.233.233.233.673.44.44.233.233.233.673.233l-1.114 6.993c3.6-.259 4.947-.466 5.18-4.299zm-37.839 33.565c-4.066.906-1.813 1.114-3.367 1.813l-.233-1.114c-.673.906-.44 2.02.44 2.693.906.44 4.947.44 5.853 0 1.347-.673.906-3.367.906-5.413-1.347.44-1.554 1.554-3.6 2.02zm56.978-83.783c-1.347 0-1.58.673-2.927.44.906 1.58 1.813 3.6 2.927 5.413l3.833-6.086c-1.114.233-2.486.233-3.833.233zm44.831-167.8c1.58 0 4.74-2.02 6.086-2.927s1.58-1.114 4.066-1.114h1.347c1.58.233.673 0 .906.673.44-1.347.233-.906-.673-1.813l-2.02-2.253c-5.18 4.273-2.693 2.927-8.78 6.993zm-.466 0c.233-2.02 3.833-5.413 4.74-7.433-.906.233-1.813.44-2.693.906-1.114.44-1.114.906-1.813 1.813-.673.881-2.253 3.367-.233 4.714zM126.855 336.304c.44 4.506 2.486 5.18 3.16 3.833l.44-4.273c-1.114.44-1.787.44-3.6.44zm34.679-75.004c-1.347.906-.44.44-1.347 1.813l-.906 1.114v.233c-.44 1.114-1.114 3.6-1.114 4.947 1.347-.44 2.253-1.813 2.486-3.367s.673-3.393.881-4.74zm83.343 26.132c1.114-1.114 1.58.44 2.694-1.114l.673-.906c-1.347-1.813-4.506-2.02-3.833.673l.233.673c0 .673 0 .44.233.673z" fill="#8f754d"/></svg>
